<mxfile host="app.diagrams.net" modified="2023-03-16T06:15:20.675Z" agent="5.0 (Windows NT 10.0; Win64; x64) AppleWebKit/537.36 (KHTML, like Gecko) Chrome/110.0.0.0 Safari/537.36 Edg/110.0.1587.63" etag="6fVfGMS2RHQERBBWYn0u" version="21.0.6" type="github" pages="2">
  <diagram id="prtHgNgQTEPvFCAcTncT" name="Page-1">
    <mxGraphModel dx="1434" dy="796" grid="1" gridSize="10" guides="1" tooltips="1" connect="1" arrows="1" fold="1" page="1" pageScale="1" pageWidth="827" pageHeight="1169" math="0" shadow="0">
      <root>
        <mxCell id="0" />
        <mxCell id="1" parent="0" />
        <mxCell id="dNxyNK7c78bLwvsdeMH5-19" value="视频处理" style="swimlane;html=1;childLayout=stackLayout;resizeParent=1;resizeParentMax=0;horizontal=0;startSize=20;horizontalStack=0;" parent="1" vertex="1">
          <mxGeometry x="70" y="120" width="1140" height="480" as="geometry">
            <mxRectangle x="120" y="120" width="40" height="60" as="alternateBounds" />
          </mxGeometry>
        </mxCell>
        <mxCell id="dNxyNK7c78bLwvsdeMH5-20" value="WEB" style="swimlane;html=1;startSize=20;horizontal=0;" parent="dNxyNK7c78bLwvsdeMH5-19" vertex="1">
          <mxGeometry x="20" width="1120" height="120" as="geometry" />
        </mxCell>
        <mxCell id="dNxyNK7c78bLwvsdeMH5-25" value="" style="edgeStyle=orthogonalEdgeStyle;rounded=0;orthogonalLoop=1;jettySize=auto;html=1;" parent="dNxyNK7c78bLwvsdeMH5-20" source="dNxyNK7c78bLwvsdeMH5-23" target="dNxyNK7c78bLwvsdeMH5-24" edge="1">
          <mxGeometry relative="1" as="geometry" />
        </mxCell>
        <mxCell id="dNxyNK7c78bLwvsdeMH5-23" value="开始" style="ellipse;whiteSpace=wrap;html=1;" parent="dNxyNK7c78bLwvsdeMH5-20" vertex="1">
          <mxGeometry x="40" y="40" width="40" height="40" as="geometry" />
        </mxCell>
        <mxCell id="dNxyNK7c78bLwvsdeMH5-24" value="上传视频文件" style="rounded=0;whiteSpace=wrap;html=1;fontFamily=Helvetica;fontSize=12;fontColor=#000000;align=center;" parent="dNxyNK7c78bLwvsdeMH5-20" vertex="1">
          <mxGeometry x="120" y="30" width="80" height="60" as="geometry" />
        </mxCell>
        <mxCell id="DOJp8TKfMdWSj9f9S-v8-34" style="edgeStyle=orthogonalEdgeStyle;rounded=0;orthogonalLoop=1;jettySize=auto;html=1;exitX=1;exitY=0.5;exitDx=0;exitDy=0;" parent="dNxyNK7c78bLwvsdeMH5-20" source="dNxyNK7c78bLwvsdeMH5-30" target="xb277HF_MsLfrIOboR0e-4" edge="1">
          <mxGeometry relative="1" as="geometry">
            <mxPoint x="880" y="50" as="targetPoint" />
          </mxGeometry>
        </mxCell>
        <mxCell id="dNxyNK7c78bLwvsdeMH5-30" value="成功信息" style="rounded=0;whiteSpace=wrap;html=1;fontFamily=Helvetica;fontSize=12;fontColor=#000000;align=center;" parent="dNxyNK7c78bLwvsdeMH5-20" vertex="1">
          <mxGeometry x="607" y="20" width="80" height="60" as="geometry" />
        </mxCell>
        <mxCell id="xb277HF_MsLfrIOboR0e-4" value="结束" style="strokeWidth=2;html=1;shape=mxgraph.flowchart.terminator;whiteSpace=wrap;" vertex="1" parent="dNxyNK7c78bLwvsdeMH5-20">
          <mxGeometry x="890" y="20" width="100" height="60" as="geometry" />
        </mxCell>
        <mxCell id="dNxyNK7c78bLwvsdeMH5-21" value="RESOURCE" style="swimlane;html=1;startSize=20;horizontal=0;" parent="dNxyNK7c78bLwvsdeMH5-19" vertex="1">
          <mxGeometry x="20" y="120" width="1120" height="120" as="geometry" />
        </mxCell>
        <mxCell id="dNxyNK7c78bLwvsdeMH5-29" value="" style="edgeStyle=orthogonalEdgeStyle;rounded=0;orthogonalLoop=1;jettySize=auto;html=1;endArrow=classic;endFill=1;" parent="dNxyNK7c78bLwvsdeMH5-21" source="dNxyNK7c78bLwvsdeMH5-26" target="dNxyNK7c78bLwvsdeMH5-28" edge="1">
          <mxGeometry relative="1" as="geometry" />
        </mxCell>
        <mxCell id="dNxyNK7c78bLwvsdeMH5-26" value="获取文件MD5" style="rounded=0;whiteSpace=wrap;html=1;fontFamily=Helvetica;fontSize=12;fontColor=#000000;align=center;" parent="dNxyNK7c78bLwvsdeMH5-21" vertex="1">
          <mxGeometry x="120" y="30" width="80" height="60" as="geometry" />
        </mxCell>
        <object label="" 否="" tooltip="否" id="DOJp8TKfMdWSj9f9S-v8-20">
          <mxCell style="edgeStyle=orthogonalEdgeStyle;rounded=0;orthogonalLoop=1;jettySize=auto;html=1;" parent="dNxyNK7c78bLwvsdeMH5-21" source="dNxyNK7c78bLwvsdeMH5-28" target="DOJp8TKfMdWSj9f9S-v8-19" edge="1">
            <mxGeometry relative="1" as="geometry">
              <Array as="points">
                <mxPoint x="390" y="60" />
                <mxPoint x="390" y="60" />
              </Array>
            </mxGeometry>
          </mxCell>
        </object>
        <mxCell id="dNxyNK7c78bLwvsdeMH5-28" value="文件是否存在" style="rhombus;whiteSpace=wrap;html=1;fontFamily=Helvetica;fontSize=12;fontColor=#000000;align=center;" parent="dNxyNK7c78bLwvsdeMH5-21" vertex="1">
          <mxGeometry x="260" y="40" width="110" height="40" as="geometry" />
        </mxCell>
        <mxCell id="DOJp8TKfMdWSj9f9S-v8-19" value="在存储中创建名字对应的文件夹" style="whiteSpace=wrap;html=1;fontColor=#000000;" parent="dNxyNK7c78bLwvsdeMH5-21" vertex="1">
          <mxGeometry x="390" y="30" width="120" height="60" as="geometry" />
        </mxCell>
        <mxCell id="DOJp8TKfMdWSj9f9S-v8-32" style="edgeStyle=orthogonalEdgeStyle;rounded=0;orthogonalLoop=1;jettySize=auto;html=1;" parent="dNxyNK7c78bLwvsdeMH5-21" source="DOJp8TKfMdWSj9f9S-v8-23" edge="1">
          <mxGeometry relative="1" as="geometry">
            <mxPoint x="650" y="-30" as="targetPoint" />
          </mxGeometry>
        </mxCell>
        <mxCell id="DOJp8TKfMdWSj9f9S-v8-23" value="获得文件信息创建转码任务" style="rounded=0;whiteSpace=wrap;html=1;fontFamily=Helvetica;fontSize=12;fontColor=#000000;align=center;" parent="dNxyNK7c78bLwvsdeMH5-21" vertex="1">
          <mxGeometry x="610" y="30" width="80" height="60" as="geometry" />
        </mxCell>
        <mxCell id="5Po9KjaSTDzuThY7a4_x-11" value="接收回调信息并更新文件的转码信息" style="rounded=0;whiteSpace=wrap;html=1;" parent="dNxyNK7c78bLwvsdeMH5-21" vertex="1">
          <mxGeometry x="840" y="30" width="120" height="60" as="geometry" />
        </mxCell>
        <mxCell id="DOJp8TKfMdWSj9f9S-v8-27" value="存储" style="swimlane;html=1;startSize=20;horizontal=0;" parent="dNxyNK7c78bLwvsdeMH5-19" vertex="1">
          <mxGeometry x="20" y="240" width="1120" height="120" as="geometry" />
        </mxCell>
        <mxCell id="DOJp8TKfMdWSj9f9S-v8-29" value="在对应文件夹存储文件" style="rounded=0;whiteSpace=wrap;html=1;fontFamily=Helvetica;fontSize=12;fontColor=#000000;align=center;" parent="DOJp8TKfMdWSj9f9S-v8-27" vertex="1">
          <mxGeometry x="470" y="20" width="80" height="60" as="geometry" />
        </mxCell>
        <mxCell id="DOJp8TKfMdWSj9f9S-v8-5" value="转码任务系统" style="swimlane;html=1;startSize=20;horizontal=0;" parent="dNxyNK7c78bLwvsdeMH5-19" vertex="1">
          <mxGeometry x="20" y="360" width="1120" height="120" as="geometry" />
        </mxCell>
        <mxCell id="DOJp8TKfMdWSj9f9S-v8-37" value="" style="edgeStyle=orthogonalEdgeStyle;rounded=0;orthogonalLoop=1;jettySize=auto;html=1;" parent="DOJp8TKfMdWSj9f9S-v8-5" source="DOJp8TKfMdWSj9f9S-v8-7" target="DOJp8TKfMdWSj9f9S-v8-36" edge="1">
          <mxGeometry relative="1" as="geometry" />
        </mxCell>
        <mxCell id="DOJp8TKfMdWSj9f9S-v8-7" value="数据库中查询一条未处理转码文件信息，并从存储获得文件" style="rounded=0;whiteSpace=wrap;html=1;fontFamily=Helvetica;fontSize=12;fontColor=#000000;align=center;" parent="DOJp8TKfMdWSj9f9S-v8-5" vertex="1">
          <mxGeometry x="250" y="20" width="100" height="60" as="geometry" />
        </mxCell>
        <mxCell id="DOJp8TKfMdWSj9f9S-v8-36" value="转码+上传" style="whiteSpace=wrap;html=1;fontColor=#000000;rounded=0;" parent="DOJp8TKfMdWSj9f9S-v8-5" vertex="1">
          <mxGeometry x="400" y="20" width="120" height="60" as="geometry" />
        </mxCell>
        <mxCell id="5Po9KjaSTDzuThY7a4_x-7" value="发出回调事件" style="rounded=0;whiteSpace=wrap;html=1;" parent="DOJp8TKfMdWSj9f9S-v8-5" vertex="1">
          <mxGeometry x="580" y="20" width="80" height="60" as="geometry" />
        </mxCell>
        <mxCell id="xb277HF_MsLfrIOboR0e-3" value="" style="edgeStyle=orthogonalEdgeStyle;rounded=0;orthogonalLoop=1;jettySize=auto;html=1;" edge="1" parent="DOJp8TKfMdWSj9f9S-v8-5" source="xb277HF_MsLfrIOboR0e-2" target="DOJp8TKfMdWSj9f9S-v8-7">
          <mxGeometry relative="1" as="geometry" />
        </mxCell>
        <mxCell id="xb277HF_MsLfrIOboR0e-2" value="定时唤起一个转码实例任务（可以有多个实例）" style="label;whiteSpace=wrap;html=1;image=img/clipart/Gear_128x128.png" vertex="1" parent="DOJp8TKfMdWSj9f9S-v8-5">
          <mxGeometry x="30" y="20" width="140" height="60" as="geometry" />
        </mxCell>
        <mxCell id="DOJp8TKfMdWSj9f9S-v8-30" style="edgeStyle=orthogonalEdgeStyle;rounded=0;orthogonalLoop=1;jettySize=auto;html=1;" parent="dNxyNK7c78bLwvsdeMH5-19" source="DOJp8TKfMdWSj9f9S-v8-19" target="DOJp8TKfMdWSj9f9S-v8-29" edge="1">
          <mxGeometry relative="1" as="geometry" />
        </mxCell>
        <mxCell id="DOJp8TKfMdWSj9f9S-v8-33" style="edgeStyle=orthogonalEdgeStyle;rounded=0;orthogonalLoop=1;jettySize=auto;html=1;entryX=0;entryY=0.5;entryDx=0;entryDy=0;" parent="dNxyNK7c78bLwvsdeMH5-19" source="dNxyNK7c78bLwvsdeMH5-28" target="dNxyNK7c78bLwvsdeMH5-30" edge="1">
          <mxGeometry relative="1" as="geometry">
            <Array as="points">
              <mxPoint x="330" y="50" />
            </Array>
          </mxGeometry>
        </mxCell>
        <mxCell id="DOJp8TKfMdWSj9f9S-v8-38" style="edgeStyle=orthogonalEdgeStyle;rounded=0;orthogonalLoop=1;jettySize=auto;html=1;" parent="dNxyNK7c78bLwvsdeMH5-19" source="DOJp8TKfMdWSj9f9S-v8-36" target="DOJp8TKfMdWSj9f9S-v8-29" edge="1">
          <mxGeometry relative="1" as="geometry" />
        </mxCell>
        <mxCell id="5Po9KjaSTDzuThY7a4_x-8" value="" style="endArrow=classic;html=1;rounded=0;exitX=0.75;exitY=0;exitDx=0;exitDy=0;entryX=0;entryY=0.5;entryDx=0;entryDy=0;" parent="dNxyNK7c78bLwvsdeMH5-19" source="DOJp8TKfMdWSj9f9S-v8-29" target="DOJp8TKfMdWSj9f9S-v8-23" edge="1">
          <mxGeometry width="50" height="50" relative="1" as="geometry">
            <mxPoint x="630" y="290" as="sourcePoint" />
            <mxPoint x="570" y="170" as="targetPoint" />
            <Array as="points">
              <mxPoint x="550" y="180" />
            </Array>
          </mxGeometry>
        </mxCell>
        <mxCell id="5Po9KjaSTDzuThY7a4_x-9" style="edgeStyle=orthogonalEdgeStyle;rounded=0;orthogonalLoop=1;jettySize=auto;html=1;exitX=0.75;exitY=1;exitDx=0;exitDy=0;entryX=0;entryY=0.5;entryDx=0;entryDy=0;" parent="dNxyNK7c78bLwvsdeMH5-19" source="DOJp8TKfMdWSj9f9S-v8-29" target="5Po9KjaSTDzuThY7a4_x-7" edge="1">
          <mxGeometry relative="1" as="geometry" />
        </mxCell>
        <mxCell id="5Po9KjaSTDzuThY7a4_x-10" style="edgeStyle=orthogonalEdgeStyle;rounded=0;orthogonalLoop=1;jettySize=auto;html=1;entryX=0.5;entryY=1;entryDx=0;entryDy=0;" parent="dNxyNK7c78bLwvsdeMH5-19" source="5Po9KjaSTDzuThY7a4_x-7" target="5Po9KjaSTDzuThY7a4_x-11" edge="1">
          <mxGeometry relative="1" as="geometry" />
        </mxCell>
        <mxCell id="5Po9KjaSTDzuThY7a4_x-12" style="edgeStyle=orthogonalEdgeStyle;rounded=0;orthogonalLoop=1;jettySize=auto;html=1;exitX=0.5;exitY=0;exitDx=0;exitDy=0;entryX=0.5;entryY=1;entryDx=0;entryDy=0;entryPerimeter=0;" parent="dNxyNK7c78bLwvsdeMH5-19" source="5Po9KjaSTDzuThY7a4_x-11" target="xb277HF_MsLfrIOboR0e-4" edge="1">
          <mxGeometry relative="1" as="geometry">
            <mxPoint x="920" y="70" as="targetPoint" />
          </mxGeometry>
        </mxCell>
        <mxCell id="5Po9KjaSTDzuThY7a4_x-13" style="edgeStyle=orthogonalEdgeStyle;rounded=0;orthogonalLoop=1;jettySize=auto;html=1;exitX=0.5;exitY=1;exitDx=0;exitDy=0;entryX=0.5;entryY=0;entryDx=0;entryDy=0;" parent="dNxyNK7c78bLwvsdeMH5-19" source="dNxyNK7c78bLwvsdeMH5-24" target="dNxyNK7c78bLwvsdeMH5-26" edge="1">
          <mxGeometry relative="1" as="geometry" />
        </mxCell>
        <mxCell id="xb277HF_MsLfrIOboR0e-1" value="" style="group" vertex="1" connectable="0" parent="1">
          <mxGeometry x="1220" y="140" width="250" height="200" as="geometry" />
        </mxCell>
        <mxCell id="5Po9KjaSTDzuThY7a4_x-5" value="" style="whiteSpace=wrap;html=1;aspect=fixed;" parent="xb277HF_MsLfrIOboR0e-1" vertex="1">
          <mxGeometry width="200" height="200" as="geometry" />
        </mxCell>
        <mxCell id="5Po9KjaSTDzuThY7a4_x-6" value="&lt;h1&gt;文件结构&lt;br&gt;&lt;/h1&gt;&lt;div&gt;原文件&lt;/div&gt;&lt;div&gt;mp4&lt;/div&gt;&lt;div&gt;&lt;span style=&quot;white-space: pre;&quot;&gt; &lt;/span&gt;xxxx.t1.mp4&amp;nbsp; //template1&lt;br&gt;&lt;/div&gt;&lt;div&gt;&amp;nbsp; &amp;nbsp; &amp;nbsp; &amp;nbsp; xxxx.t2.mp4&amp;nbsp; //template2&lt;/div&gt;&lt;div&gt;&amp;nbsp; &amp;nbsp; &amp;nbsp; &amp;nbsp; xxxx.t3.mp4&lt;/div&gt;&lt;div&gt;m3u8&lt;/div&gt;&lt;div&gt;文件元数据能存储吗？&lt;/div&gt;&lt;div&gt;&lt;br&gt;&lt;/div&gt;&lt;div&gt;&lt;br&gt;&lt;/div&gt;" style="text;html=1;strokeColor=none;fillColor=none;spacing=5;spacingTop=-20;whiteSpace=wrap;overflow=hidden;rounded=0;" parent="xb277HF_MsLfrIOboR0e-1" vertex="1">
          <mxGeometry width="250.00000000000003" height="188.23529411764707" as="geometry" />
        </mxCell>
      </root>
    </mxGraphModel>
  </diagram>
  <diagram id="mXz84r7ccdYVKOhXlAZa" name="第 2 页">
    <mxGraphModel dx="1434" dy="796" grid="1" gridSize="10" guides="1" tooltips="1" connect="1" arrows="1" fold="1" page="1" pageScale="1" pageWidth="827" pageHeight="1169" math="0" shadow="0">
      <root>
        <mxCell id="0" />
        <mxCell id="1" parent="0" />
        <mxCell id="lJvOCIclP4NKPG_G5WFS-3" style="edgeStyle=orthogonalEdgeStyle;rounded=0;orthogonalLoop=1;jettySize=auto;html=1;exitX=1;exitY=0.3333333333333333;exitDx=0;exitDy=0;exitPerimeter=0;entryX=0;entryY=0.5;entryDx=0;entryDy=0;" edge="1" parent="1" source="lJvOCIclP4NKPG_G5WFS-1" target="lJvOCIclP4NKPG_G5WFS-2">
          <mxGeometry relative="1" as="geometry" />
        </mxCell>
        <mxCell id="lJvOCIclP4NKPG_G5WFS-11" style="edgeStyle=orthogonalEdgeStyle;rounded=0;orthogonalLoop=1;jettySize=auto;html=1;exitX=1;exitY=0.3333333333333333;exitDx=0;exitDy=0;exitPerimeter=0;entryX=0;entryY=0.5;entryDx=0;entryDy=0;" edge="1" parent="1" source="lJvOCIclP4NKPG_G5WFS-1" target="lJvOCIclP4NKPG_G5WFS-6">
          <mxGeometry relative="1" as="geometry" />
        </mxCell>
        <mxCell id="lJvOCIclP4NKPG_G5WFS-12" style="edgeStyle=orthogonalEdgeStyle;rounded=0;orthogonalLoop=1;jettySize=auto;html=1;exitX=1;exitY=0.3333333333333333;exitDx=0;exitDy=0;exitPerimeter=0;entryX=0;entryY=0.5;entryDx=0;entryDy=0;" edge="1" parent="1" source="lJvOCIclP4NKPG_G5WFS-1" target="lJvOCIclP4NKPG_G5WFS-7">
          <mxGeometry relative="1" as="geometry">
            <Array as="points">
              <mxPoint x="230" y="330" />
              <mxPoint x="230" y="255" />
            </Array>
          </mxGeometry>
        </mxCell>
        <mxCell id="lJvOCIclP4NKPG_G5WFS-13" style="edgeStyle=orthogonalEdgeStyle;rounded=0;orthogonalLoop=1;jettySize=auto;html=1;exitX=1;exitY=0.3333333333333333;exitDx=0;exitDy=0;exitPerimeter=0;" edge="1" parent="1" source="lJvOCIclP4NKPG_G5WFS-1" target="lJvOCIclP4NKPG_G5WFS-5">
          <mxGeometry relative="1" as="geometry">
            <Array as="points">
              <mxPoint x="230" y="330" />
              <mxPoint x="230" y="305" />
            </Array>
          </mxGeometry>
        </mxCell>
        <mxCell id="lJvOCIclP4NKPG_G5WFS-14" style="edgeStyle=orthogonalEdgeStyle;rounded=0;orthogonalLoop=1;jettySize=auto;html=1;exitX=1;exitY=0.3333333333333333;exitDx=0;exitDy=0;exitPerimeter=0;entryX=0;entryY=0.5;entryDx=0;entryDy=0;" edge="1" parent="1" source="lJvOCIclP4NKPG_G5WFS-1" target="lJvOCIclP4NKPG_G5WFS-8">
          <mxGeometry relative="1" as="geometry">
            <Array as="points">
              <mxPoint x="230" y="330" />
              <mxPoint x="230" y="345" />
            </Array>
          </mxGeometry>
        </mxCell>
        <mxCell id="lJvOCIclP4NKPG_G5WFS-16" style="edgeStyle=orthogonalEdgeStyle;rounded=0;orthogonalLoop=1;jettySize=auto;html=1;exitX=1;exitY=0.3333333333333333;exitDx=0;exitDy=0;exitPerimeter=0;entryX=0;entryY=0.5;entryDx=0;entryDy=0;" edge="1" parent="1" source="lJvOCIclP4NKPG_G5WFS-1" target="lJvOCIclP4NKPG_G5WFS-15">
          <mxGeometry relative="1" as="geometry">
            <Array as="points">
              <mxPoint x="230" y="330" />
              <mxPoint x="230" y="405" />
            </Array>
          </mxGeometry>
        </mxCell>
        <mxCell id="lJvOCIclP4NKPG_G5WFS-1" value="文件管理员" style="shape=umlActor;verticalLabelPosition=bottom;verticalAlign=top;html=1;" vertex="1" parent="1">
          <mxGeometry x="120" y="310" width="30" height="60" as="geometry" />
        </mxCell>
        <mxCell id="lJvOCIclP4NKPG_G5WFS-2" value="上传文件" style="ellipse;whiteSpace=wrap;html=1;" vertex="1" parent="1">
          <mxGeometry x="310" y="90" width="140" height="70" as="geometry" />
        </mxCell>
        <mxCell id="lJvOCIclP4NKPG_G5WFS-20" style="edgeStyle=orthogonalEdgeStyle;rounded=0;orthogonalLoop=1;jettySize=auto;html=1;exitX=1;exitY=0.3333333333333333;exitDx=0;exitDy=0;exitPerimeter=0;entryX=0;entryY=0.5;entryDx=0;entryDy=0;" edge="1" parent="1" source="lJvOCIclP4NKPG_G5WFS-4" target="lJvOCIclP4NKPG_G5WFS-17">
          <mxGeometry relative="1" as="geometry" />
        </mxCell>
        <mxCell id="lJvOCIclP4NKPG_G5WFS-21" style="edgeStyle=orthogonalEdgeStyle;rounded=0;orthogonalLoop=1;jettySize=auto;html=1;exitX=1;exitY=0.3333333333333333;exitDx=0;exitDy=0;exitPerimeter=0;entryX=0;entryY=0.5;entryDx=0;entryDy=0;" edge="1" parent="1" source="lJvOCIclP4NKPG_G5WFS-4" target="lJvOCIclP4NKPG_G5WFS-18">
          <mxGeometry relative="1" as="geometry" />
        </mxCell>
        <mxCell id="lJvOCIclP4NKPG_G5WFS-23" style="edgeStyle=orthogonalEdgeStyle;rounded=0;orthogonalLoop=1;jettySize=auto;html=1;exitX=1;exitY=0.3333333333333333;exitDx=0;exitDy=0;exitPerimeter=0;entryX=0;entryY=0.5;entryDx=0;entryDy=0;" edge="1" parent="1" source="lJvOCIclP4NKPG_G5WFS-4" target="lJvOCIclP4NKPG_G5WFS-19">
          <mxGeometry relative="1" as="geometry" />
        </mxCell>
        <mxCell id="lJvOCIclP4NKPG_G5WFS-4" value="定时器&lt;br&gt;" style="shape=umlActor;verticalLabelPosition=bottom;verticalAlign=top;html=1;" vertex="1" parent="1">
          <mxGeometry x="140" y="590" width="30" height="60" as="geometry" />
        </mxCell>
        <mxCell id="lJvOCIclP4NKPG_G5WFS-5" value="手动转码" style="ellipse;whiteSpace=wrap;html=1;" vertex="1" parent="1">
          <mxGeometry x="344" y="270" width="140" height="70" as="geometry" />
        </mxCell>
        <mxCell id="lJvOCIclP4NKPG_G5WFS-6" value="查询文件详情" style="ellipse;whiteSpace=wrap;html=1;" vertex="1" parent="1">
          <mxGeometry x="310" y="170" width="140" height="70" as="geometry" />
        </mxCell>
        <mxCell id="lJvOCIclP4NKPG_G5WFS-7" value="查询文件列表" style="ellipse;whiteSpace=wrap;html=1;" vertex="1" parent="1">
          <mxGeometry x="480" y="220" width="140" height="70" as="geometry" />
        </mxCell>
        <mxCell id="lJvOCIclP4NKPG_G5WFS-8" value="查询转码模板列表" style="ellipse;whiteSpace=wrap;html=1;" vertex="1" parent="1">
          <mxGeometry x="480" y="310" width="140" height="70" as="geometry" />
        </mxCell>
        <mxCell id="lJvOCIclP4NKPG_G5WFS-15" value="设置默认的转码模板" style="ellipse;whiteSpace=wrap;html=1;" vertex="1" parent="1">
          <mxGeometry x="320" y="370" width="140" height="70" as="geometry" />
        </mxCell>
        <mxCell id="lJvOCIclP4NKPG_G5WFS-17" value="查询转码模板详情" style="ellipse;whiteSpace=wrap;html=1;" vertex="1" parent="1">
          <mxGeometry x="240" y="500" width="140" height="70" as="geometry" />
        </mxCell>
        <mxCell id="lJvOCIclP4NKPG_G5WFS-18" value="按模板转码" style="ellipse;whiteSpace=wrap;html=1;" vertex="1" parent="1">
          <mxGeometry x="350" y="575" width="140" height="70" as="geometry" />
        </mxCell>
        <mxCell id="lJvOCIclP4NKPG_G5WFS-19" value="上传文件至存储" style="ellipse;whiteSpace=wrap;html=1;" vertex="1" parent="1">
          <mxGeometry x="240" y="640" width="140" height="70" as="geometry" />
        </mxCell>
      </root>
    </mxGraphModel>
  </diagram>
</mxfile>
